<svg xmlns="http://www.w3.org/2000/svg" width="1200" height="630" viewBox="0 0 1200 630" font-family="Inter, Segoe UI, Arial, sans-serif">
  <!-- Off-white share card (ADR-075 HARD RULE 0). Replaced the dark navy-gradient
       version 2026-07-18 so the card matches the site and its on-page imagery;
       original archived in W:/systems/products/sbm/design/legacy-dark-images/.
       Composition unchanged: brand mark, statement, formula strip, footer. -->

  <rect width="1200" height="630" fill="#f7f8fa"/>
  <!-- accent corner bar (SBM blue) -->
  <rect x="0" y="0" width="1200" height="8" fill="#2563eb"/>

  <!-- brand mark: the favicon grid, gold centre = structure resolves to the payoff -->
  <g>
    <rect x="561" y="118" width="24" height="24" rx="5" fill="#2563eb"/>
    <rect x="591" y="118" width="24" height="24" rx="5" fill="#1e3a8a"/>
    <rect x="621" y="118" width="24" height="24" rx="5" fill="#2563eb"/>
    <rect x="561" y="148" width="24" height="24" rx="5" fill="#1e3a8a"/>
    <rect x="591" y="148" width="24" height="24" rx="5" fill="#b88a1b"/>
    <rect x="621" y="148" width="24" height="24" rx="5" fill="#1e3a8a"/>
    <rect x="561" y="178" width="24" height="24" rx="5" fill="#2563eb"/>
    <rect x="591" y="178" width="24" height="24" rx="5" fill="#1e3a8a"/>
    <rect x="621" y="178" width="24" height="24" rx="5" fill="#2563eb"/>
  </g>

  <!-- statement -->
  <text x="600" y="300" text-anchor="middle" font-size="92" font-weight="800" fill="#0f172a" letter-spacing="-2">Structure</text>
  <text x="600" y="376" text-anchor="middle" font-size="54" font-weight="600" fill="#475569">beats</text>
  <text x="600" y="464" text-anchor="middle" font-size="92" font-weight="800" fill="#b88a1b" letter-spacing="-2">magic</text>
  <rect x="500" y="496" width="200" height="4" rx="2" fill="#2563eb"/>

  <!-- formula strip (the master formula — gold Systems is the payoff).
       Two left-anchored text elements so the gold payoff aligns deterministically
       (avoids adjacent-tspan whitespace trimming in some SVG rasterizers). -->
  <text x="316" y="546" font-size="26" fill="#475569" xml:space="preserve">Structure + Data + AI + Rules + Skills  &#8594;  </text>
  <text x="792" y="546" font-size="26" font-weight="800" fill="#b88a1b">Systems</text>

  <!-- footer -->
  <text x="600" y="596" text-anchor="middle" font-size="20" fill="#94a3b8">Knowledge management, re-architected for the AI era · structurebeatsmagic.com</text>
</svg>
