<svg xmlns="http://www.w3.org/2000/svg" width="1600" height="720" viewBox="0 160 1600 720" font-family="Segoe UI, Arial, sans-serif">
  <defs>
    <linearGradient id="bg" x1="0" y1="0" x2="0" y2="1">
      <stop offset="0" stop-color="#0f172a"/>
      <stop offset="1" stop-color="#1e293b"/>
    </linearGradient>
    <linearGradient id="goldText" x1="0" y1="0" x2="1" y2="0">
      <stop offset="0" stop-color="#fde68a"/>
      <stop offset="1" stop-color="#eab308"/>
    </linearGradient>
    <filter id="soft" x="-20%" y="-20%" width="140%" height="140%">
      <feDropShadow dx="0" dy="6" stdDeviation="12" flood-color="#000" flood-opacity="0.45"/>
    </filter>
    <filter id="glow" x="-50%" y="-50%" width="200%" height="200%">
      <feGaussianBlur stdDeviation="8" result="b"/>
      <feMerge><feMergeNode in="b"/><feMergeNode in="SourceGraphic"/></feMerge>
    </filter>
  </defs>

  <rect width="1600" height="900" fill="url(#bg)"/>

  <!-- faint structural grid (left) vs scattered dots (right) — visual metaphor -->
  <g opacity="0.16" stroke="#38bdf8" stroke-width="1.4">
    <line x1="120" y1="240" x2="120" y2="660"/><line x1="220" y1="240" x2="220" y2="660"/>
    <line x1="320" y1="240" x2="320" y2="660"/><line x1="420" y1="240" x2="420" y2="660"/>
    <line x1="120" y1="240" x2="420" y2="240"/><line x1="120" y1="340" x2="420" y2="340"/>
    <line x1="120" y1="440" x2="420" y2="440"/><line x1="120" y1="540" x2="420" y2="540"/>
    <line x1="120" y1="640" x2="420" y2="640"/>
  </g>
  <g opacity="0.22" fill="#475569">
    <circle cx="1230" cy="270" r="6"/><circle cx="1330" cy="350" r="5"/><circle cx="1180" cy="420" r="7"/>
    <circle cx="1390" cy="470" r="5"/><circle cx="1270" cy="540" r="6"/><circle cx="1160" cy="600" r="5"/>
    <circle cx="1360" cy="620" r="6"/><circle cx="1300" cy="450" r="4"/>
  </g>

  <!-- Eyebrow -->
  <text x="800" y="250" text-anchor="middle" font-size="26" fill="#38bdf8" letter-spacing="6" font-weight="700">THE STANCE</text>

  <!-- Main statement -->
  <text x="800" y="430" text-anchor="middle" font-size="130" font-weight="800" fill="#f8fafc" letter-spacing="1">Structure</text>
  <text x="800" y="560" text-anchor="middle" font-size="86" font-weight="700" fill="#94a3b8">beats</text>
  <text x="800" y="690" text-anchor="middle" font-size="130" font-weight="800" fill="url(#goldText)" filter="url(#glow)" letter-spacing="1">magic</text>

  <!-- underline accent -->
  <rect x="640" y="720" width="320" height="5" rx="2.5" fill="#38bdf8"/>

  <!-- Sub-line -->
  <text x="800" y="788" text-anchor="middle" font-size="27" fill="#cbd5e1">The magic isn't in the model — it's in the structure you give it.</text>

  <!-- Attribution -->
  <text x="800" y="852" text-anchor="middle" font-size="19" fill="#64748b">structurebeatsmagic.com · Jaco van der Laan</text>
</svg>
